SplineFontDB: 3.2
FontName: PixelEdge
FullName: Untitled1
FamilyName: Untitled1
Weight: Regular
Copyright: Copyright (c) 2024, Ayush Chauhan
UComments: "2024-9-11: Created with FontForge (http://fontforge.org)"
Version: 001.000
ItalicAngle: 0
UnderlinePosition: -100
UnderlineWidth: 50
Ascent: 800
Descent: 200
InvalidEm: 0
LayerCount: 2
Layer: 0 0 "Back" 1
Layer: 1 0 "Fore" 0
XUID: [1021 333 -1458125543 27447]
OS2Version: 0
OS2_WeightWidthSlopeOnly: 0
OS2_UseTypoMetrics: 1
CreationTime: 1726028824
ModificationTime: 1726052770
OS2TypoAscent: 0
OS2TypoAOffset: 1
OS2TypoDescent: 0
OS2TypoDOffset: 1
OS2TypoLinegap: 0
OS2WinAscent: 0
OS2WinAOffset: 1
OS2WinDescent: 0
OS2WinDOffset: 1
HheadAscent: 0
HheadAOffset: 1
HheadDescent: 0
HheadDOffset: 1
OS2Vendor: 'PfEd'
Lookup: 258 0 0 "'kern' Horizontal Kerning in Latin lookup 0" { "'kern' Horizontal Kerning in Latin lookup 0-2" [150,15,2] "'kern' Horizontal Kerning in Latin lookup 0-1" [150,15,0] } ['kern' ('DFLT' <'dflt' > 'latn' <'dflt' > ) ]
MarkAttachClasses: 1
MarkAttachSets: 1
"" 0 
DEI: 91125
KernClass2: 1 1 "'kern' Horizontal Kerning in Latin lookup 0-1"
 0 {}
Encoding: ISO8859-1
UnicodeInterp: none
NameList: AGL For New Fonts
DisplaySize: -48
AntiAlias: 1
FitToEm: 0
WidthSeparation: 150
WinInfo: 48 16 6
BeginPrivate: 0
EndPrivate
BeginChars: 256 36

StartChar: A
Encoding: 65 65 0
Width: 1000
Flags: H
LayerCount: 2
Back
Fore
SplineSet
335.340820312 310.040039062 m 1
 335.340820312 398.393554688 l 1
 504.015625 398.393554688 l 1
 672.690429688 398.393554688 l 1
 672.690429688 310.040039062 l 1
 672.690429688 221.686523438 l 1
 504.015625 221.686523438 l 1
 335.340820312 221.686523438 l 1
 335.340820312 310.040039062 l 1
797.188476562 243.775390625 m 1
 797.188476562 595.180664062 l 1
 885.541992188 595.180664062 l 1
 973.895507812 595.180664062 l 1
 973.895507812 243.775390625 l 1
 973.895507812 -107.630859375 l 1
 885.541992188 -107.630859375 l 1
 797.188476562 -107.630859375 l 1
 797.188476562 243.775390625 l 1
26.1044921875 243.775390625 m 1
 26.1044921875 595.180664062 l 1
 114.45703125 595.180664062 l 1
 202.810546875 595.180664062 l 1
 202.810546875 243.775390625 l 1
 202.810546875 -107.630859375 l 1
 114.45703125 -107.630859375 l 1
 26.1044921875 -107.630859375 l 1
 26.1044921875 243.775390625 l 1
202.810546875 693.57421875 m 1
 202.810546875 775.903320312 l 1
 500 775.903320312 l 1
 797.188476562 775.903320312 l 1
 797.188476562 693.57421875 l 1
 797.188476562 611.245117188 l 1
 500 611.245117188 l 1
 202.810546875 611.245117188 l 1
 202.810546875 693.57421875 l 1
EndSplineSet
EndChar

StartChar: B
Encoding: 66 66 1
Width: 1000
Flags: H
LayerCount: 2
Back
Fore
SplineSet
312.5 -54.7294921875 m 1
 312.5 29.7294921875 l 1
 532.09375 29.7294921875 l 1
 751.689453125 29.7294921875 l 1
 751.689453125 -54.7294921875 l 1
 751.689453125 -139.189453125 l 1
 532.09375 -139.189453125 l 1
 312.5 -139.189453125 l 1
 312.5 -54.7294921875 l 1
778.716796875 122.634765625 m 1
 778.716796875 215.541015625 l 1
 871.62109375 215.541015625 l 1
 964.52734375 215.541015625 l 1
 964.52734375 122.634765625 l 1
 964.52734375 29.7294921875 l 1
 871.62109375 29.7294921875 l 1
 778.716796875 29.7294921875 l 1
 778.716796875 122.634765625 l 1
312.5 310.134765625 m 1
 312.5 394.594726562 l 1
 532.09375 394.594726562 l 1
 751.689453125 394.594726562 l 1
 751.689453125 310.134765625 l 1
 751.689453125 225.67578125 l 1
 532.09375 225.67578125 l 1
 312.5 225.67578125 l 1
 312.5 310.134765625 l 1
778.716796875 507.770507812 m 1
 778.716796875 600.67578125 l 1
 871.62109375 600.67578125 l 1
 964.52734375 600.67578125 l 1
 964.52734375 507.770507812 l 1
 964.52734375 414.865234375 l 1
 871.62109375 414.865234375 l 1
 778.716796875 414.865234375 l 1
 778.716796875 507.770507812 l 1
312.5 668.243164062 m 1
 312.5 752.703125 l 1
 525.337890625 752.703125 l 1
 738.17578125 752.703125 l 1
 738.17578125 668.243164062 l 1
 738.17578125 583.784179688 l 1
 525.337890625 583.784179688 l 1
 312.5 583.784179688 l 1
 312.5 668.243164062 l 1
35.47265625 306.756835938 m 1
 35.47265625 752.703125 l 1
 128.37890625 752.703125 l 1
 221.283203125 752.703125 l 1
 221.283203125 306.756835938 l 1
 221.283203125 -139.189453125 l 1
 128.37890625 -139.189453125 l 1
 35.47265625 -139.189453125 l 1
 35.47265625 306.756835938 l 1
EndSplineSet
EndChar

StartChar: C
Encoding: 67 67 2
Width: 1000
Flags: H
LayerCount: 2
Back
Fore
SplineSet
293.448242188 8.275390625 m 0
 295.3203125 13.2685546875 326.723632812 13.7109375 623.620117188 12.9306640625 c 2
 951.723632812 12.0693359375 l 1
 952.5859375 -72.2412109375 l 2
 953.251953125 -137.4140625 952.430664062 -157.197265625 948.96484375 -159.39453125 c 0
 943.994140625 -162.546875 311.034179688 -163.188476562 299.309570312 -160.052734375 c 2
 291.37890625 -157.930664062 l 1
 291.37890625 -77.5859375 l 2
 291.37890625 -33.4482421875 292.311523438 5.2451171875 293.448242188 8.275390625 c 0
46.5517578125 296.551757812 m 1
 46.5517578125 586.20703125 l 1
 143.103515625 586.20703125 l 1
 239.655273438 586.20703125 l 1
 239.655273438 296.551757812 l 1
 239.655273438 6.896484375 l 1
 143.103515625 6.896484375 l 1
 46.5517578125 6.896484375 l 1
 46.5517578125 296.551757812 l 1
292.930664062 743.965820312 m 2
 294.827148438 751.724609375 l 1
 623.275390625 750.862304688 l 1
 951.723632812 750 l 1
 952.5859375 664.655273438 l 1
 953.448242188 579.310546875 l 1
 623.275390625 580.172851562 l 1
 293.103515625 581.034179688 l 1
 292.068359375 658.62109375 l 2
 291.498046875 701.37890625 291.885742188 739.689453125 292.930664062 743.965820312 c 2
EndSplineSet
EndChar

StartChar: D
Encoding: 68 68 3
Width: 1200
Flags: HW
LayerCount: 2
Back
Fore
SplineSet
317.46484375 -66.4384765625 m 1
 317.46484375 19.177734375 l 1
 615.41015625 19.177734375 l 1
 913.35546875 19.177734375 l 1
 913.35546875 -66.4384765625 l 1
 913.35546875 -152.0546875 l 1
 615.41015625 -152.0546875 l 1
 317.46484375 -152.0546875 l 1
 317.46484375 -66.4384765625 l 1
975 301.711914062 m 1
 975 580.822265625 l 1
 1069.17773438 580.822265625 l 1
 1163.35546875 580.822265625 l 1
 1163.35546875 301.711914062 l 1
 1163.35546875 22.6025390625 l 1
 1069.17773438 22.6025390625 l 1
 975 22.6025390625 l 1
 975 301.711914062 l 1
317.46484375 666.438476562 m 1
 317.46484375 752.0546875 l 1
 615.41015625 752.0546875 l 1
 913.35546875 752.0546875 l 1
 913.35546875 666.438476562 l 1
 913.35546875 580.822265625 l 1
 615.41015625 580.822265625 l 1
 317.46484375 580.822265625 l 1
 317.46484375 666.438476562 l 1
36.64453125 300 m 1
 36.64453125 752.0546875 l 1
 132.533203125 752.0546875 l 1
 228.423828125 752.0546875 l 1
 228.423828125 300 l 1
 228.423828125 -152.0546875 l 1
 132.533203125 -152.0546875 l 1
 36.64453125 -152.0546875 l 1
 36.64453125 300 l 1
EndSplineSet
EndChar

StartChar: E
Encoding: 69 69 4
Width: 1000
Flags: H
LayerCount: 2
Back
Fore
SplineSet
302.004882812 23.732421875 m 0
 307.748046875 27.375 936.125976562 27.375 941.870117188 23.732421875 c 0
 945.264648438 21.578125 946.0703125 2.1962890625 945.416992188 -61.6552734375 c 2
 944.572265625 -144.256835938 l 1
 621.9375 -144.256835938 l 1
 299.301757812 -144.256835938 l 1
 298.458007812 -61.6552734375 l 2
 297.8046875 2.1962890625 298.610351562 21.578125 302.004882812 23.732421875 c 0
299.977539062 389.020507812 m 0
 301.28125 390.23046875 374.470703125 390.836914062 462.984375 390.372070312 c 2
 623.625976562 389.52734375 l 1
 624.470703125 305.912109375 l 1
 625.315429688 222.296875 l 1
 461.463867188 222.296875 l 1
 297.61328125 222.296875 l 1
 297.61328125 304.560546875 l 2
 297.61328125 349.831054688 298.676757812 387.811523438 299.977539062 389.020507812 c 0
54.3701171875 303.377929688 m 1
 54.3701171875 664.865234375 l 1
 148.963867188 664.865234375 l 1
 243.55859375 664.865234375 l 1
 243.55859375 303.377929688 l 1
 243.55859375 -58.1083984375 l 1
 148.963867188 -58.1083984375 l 1
 54.3701171875 -58.1083984375 l 1
 54.3701171875 303.377929688 l 1
299.1328125 745.1015625 m 0
 300.346679688 748.473632812 364.842773438 749.32421875 619.234375 749.32421875 c 0
 794.572265625 749.32421875 939.71484375 748.109375 942.0390625 746.622070312 c 0
 945.302734375 744.532226562 946.0703125 725.168945312 945.416992188 661.317382812 c 2
 944.572265625 578.715820312 l 1
 621.9375 578.715820312 l 1
 299.301757812 578.715820312 l 1
 298.458007812 659.796875 l 2
 297.993164062 704.391601562 298.296875 742.778320312 299.1328125 745.1015625 c 0
EndSplineSet
EndChar

StartChar: F
Encoding: 70 70 5
Width: 1000
Flags: H
LayerCount: 2
Back
Fore
SplineSet
290.6484375 376.584960938 m 0
 291.911132812 380.092773438 326.740234375 380.807617188 462.303710938 380.10546875 c 2
 632.374023438 379.225585938 l 1
 632.374023438 292.958007812 l 1
 632.374023438 206.690429688 l 1
 461.599609375 206.690429688 l 1
 290.82421875 206.690429688 l 1
 289.944335938 289.436523438 l 2
 289.4609375 334.859375 289.778320312 374.16796875 290.6484375 376.584960938 c 0
35.54296875 210.2109375 m 1
 35.54296875 585.2109375 l 1
 134.134765625 585.2109375 l 1
 232.725585938 585.2109375 l 1
 232.725585938 210.2109375 l 1
 232.725585938 -164.7890625 l 1
 134.134765625 -164.7890625 l 1
 35.54296875 -164.7890625 l 1
 35.54296875 210.2109375 l 1
293.2890625 750 m 0
 296.538085938 753.249023438 374.451171875 754.021484375 630.4375 753.344726562 c 2
 963.359375 752.46484375 l 1
 964.240234375 666.373046875 l 2
 964.920898438 599.82421875 964.081054688 579.62109375 960.54296875 577.373046875 c 0
 955.416015625 574.115234375 303.1484375 573.465820312 294.698242188 576.709960938 c 0
 289.77734375 578.599609375 289.064453125 589.436523438 289.064453125 662.32421875 c 0
 289.064453125 722.887695312 290.22265625 746.93359375 293.2890625 750 c 0
EndSplineSet
EndChar

StartChar: G
Encoding: 71 71 6
Width: 1000
Flags: H
LayerCount: 2
Back
Fore
SplineSet
264.451171875 -56.9365234375 m 1
 264.451171875 28.3232421875 l 1
 406.069335938 28.3232421875 l 1
 547.688476562 28.3232421875 l 1
 547.688476562 -56.9365234375 l 1
 547.688476562 -142.196289062 l 1
 406.069335938 -142.196289062 l 1
 264.451171875 -142.196289062 l 1
 264.451171875 -56.9365234375 l 1
625.72265625 36.994140625 m 1
 625.72265625 146.821289062 l 1
 721.098632812 146.821289062 l 1
 816.474609375 146.821289062 l 1
 816.474609375 36.994140625 l 1
 816.474609375 -72.83203125 l 1
 721.098632812 -72.83203125 l 1
 625.72265625 -72.83203125 l 1
 625.72265625 36.994140625 l 1
470.231445312 396.032226562 m 2
 526.58984375 397.838867188 953.626953125 398.313476562 960.116210938 396.577148438 c 2
 966.762695312 394.797851562 l 1
 966.762695312 301.15625 l 1
 966.762695312 207.514648438 l 1
 703.7578125 207.514648438 l 1
 440.751953125 207.514648438 l 1
 440.751953125 301.30078125 l 1
 440.751953125 395.086914062 l 1
 470.231445312 396.032226562 l 2
33.2373046875 300 m 1
 33.2373046875 672.83203125 l 1
 128.61328125 672.83203125 l 1
 223.98828125 672.83203125 l 1
 223.98828125 300 l 1
 223.98828125 -72.83203125 l 1
 128.61328125 -72.83203125 l 1
 33.2373046875 -72.83203125 l 1
 33.2373046875 300 l 1
264.451171875 671.387695312 m 1
 264.451171875 756.647460938 l 1
 546.243164062 756.647460938 l 1
 828.03515625 756.647460938 l 1
 828.03515625 671.387695312 l 1
 828.03515625 586.126953125 l 1
 546.243164062 586.126953125 l 1
 264.451171875 586.126953125 l 1
 264.451171875 671.387695312 l 1
EndSplineSet
EndChar

StartChar: H
Encoding: 72 72 7
Width: 1200
Flags: HW
LayerCount: 2
Back
Fore
SplineSet
318.390625 315.8046875 m 1
 318.390625 400.575195312 l 1
 598.5625 400.575195312 l 1
 878.734375 400.575195312 l 1
 878.734375 315.8046875 l 1
 878.734375 231.034179688 l 1
 598.5625 231.034179688 l 1
 318.390625 231.034179688 l 1
 318.390625 315.8046875 l 1
967.81640625 310.057617188 m 1
 967.81640625 756.896484375 l 1
 1062.64257812 756.896484375 l 1
 1157.47070312 756.896484375 l 1
 1157.47070312 310.057617188 l 1
 1157.47070312 -136.78125 l 1
 1062.64257812 -136.78125 l 1
 967.81640625 -136.78125 l 1
 967.81640625 310.057617188 l 1
42.529296875 310.057617188 m 1
 42.529296875 756.896484375 l 1
 135.919921875 756.896484375 l 1
 229.310546875 756.896484375 l 1
 229.310546875 310.057617188 l 1
 229.310546875 -136.78125 l 1
 135.919921875 -136.78125 l 1
 42.529296875 -136.78125 l 1
 42.529296875 310.057617188 l 1
EndSplineSet
EndChar

StartChar: I
Encoding: 73 73 8
Width: 600
Flags: W
HStem: -158.333 21G<201.785 398.215> 750.238 20G<201.785 398.215>
VStem: 201.785 196.43<-158.333 770.238>
LayerCount: 2
Back
Fore
SplineSet
201.78515625 305.952148438 m 1
 201.78515625 770.23828125 l 1
 300 770.23828125 l 1
 398.21484375 770.23828125 l 1
 398.21484375 305.952148438 l 1
 398.21484375 -158.333007812 l 1
 300 -158.333007812 l 1
 201.78515625 -158.333007812 l 1
 201.78515625 305.952148438 l 1
EndSplineSet
EndChar

StartChar: J
Encoding: 74 74 9
Width: 1000
Flags: H
LayerCount: 2
Back
Fore
SplineSet
69.29296875 -57.3369140625 m 1
 69.29296875 25.5439453125 l 1
 387.228515625 25.5439453125 l 1
 705.1640625 25.5439453125 l 1
 705.1640625 -57.3369140625 l 1
 705.1640625 -140.217773438 l 1
 387.228515625 -140.217773438 l 1
 69.29296875 -140.217773438 l 1
 69.29296875 -57.3369140625 l 1
745.923828125 361.141601562 m 1
 745.923828125 753.8046875 l 1
 838.314453125 753.8046875 l 1
 930.70703125 753.8046875 l 1
 930.70703125 361.141601562 l 1
 930.70703125 -31.521484375 l 1
 838.314453125 -31.521484375 l 1
 745.923828125 -31.521484375 l 1
 745.923828125 361.141601562 l 1
EndSplineSet
EndChar

StartChar: K
Encoding: 75 75 10
Width: 1000
Flags: H
LayerCount: 2
Back
Fore
SplineSet
547.872070312 215.55859375 m 2
 581.1171875 248.802734375 608.9765625 276.063476562 609.70703125 276.063476562 c 0
 610.4375 276.063476562 666.489257812 220.611328125 734.041992188 153.05859375 c 2
 857.047851562 30.052734375 l 1
 795.877929688 -31.1171875 l 1
 734.70703125 -92.287109375 l 1
 611.037109375 31.3828125 l 1
 487.3671875 155.052734375 l 1
 547.872070312 215.55859375 l 2
359.70703125 305.319335938 m 1
 359.70703125 385.106445312 l 1
 446.143554688 385.106445312 l 1
 532.580078125 385.106445312 l 1
 532.580078125 305.319335938 l 1
 532.580078125 225.532226562 l 1
 446.143554688 225.532226562 l 1
 359.70703125 225.532226562 l 1
 359.70703125 305.319335938 l 1
609.041992188 582.580078125 m 1
 736.037109375 709.57421875 l 1
 797.20703125 648.404296875 l 1
 858.377929688 587.234375 l 1
 731.3828125 460.239257812 l 1
 604.387695312 333.245117188 l 1
 543.217773438 394.415039062 l 1
 482.047851562 455.584960938 l 1
 609.041992188 582.580078125 l 1
141.622070312 294.680664062 m 1
 141.622070312 709.57421875 l 1
 228.05859375 709.57421875 l 1
 314.494140625 709.57421875 l 1
 314.494140625 294.680664062 l 1
 314.494140625 -120.212890625 l 1
 228.05859375 -120.212890625 l 1
 141.622070312 -120.212890625 l 1
 141.622070312 294.680664062 l 1
EndSplineSet
EndChar

StartChar: L
Encoding: 76 76 11
Width: 1000
Flags: H
LayerCount: 2
Back
Fore
SplineSet
295.05859375 -54.6513671875 m 1
 295.05859375 29.6513671875 l 1
 613.373046875 29.6513671875 l 1
 931.685546875 29.6513671875 l 1
 930.958984375 -53.9248046875 l 1
 930.232421875 -137.5 l 1
 612.64453125 -138.2265625 l 1
 295.05859375 -138.953125 l 1
 295.05859375 -54.6513671875 l 1
68.314453125 359.592773438 m 1
 68.314453125 744.767578125 l 1
 159.884765625 744.767578125 l 1
 251.453125 744.767578125 l 1
 251.453125 359.592773438 l 1
 251.453125 -25.5810546875 l 1
 159.884765625 -25.5810546875 l 1
 68.314453125 -25.5810546875 l 1
 68.314453125 359.592773438 l 1
EndSplineSet
EndChar

StartChar: M
Encoding: 77 77 12
Width: 1200
Flags: HW
LayerCount: 2
Back
Fore
SplineSet
528.14453125 356.885742188 m 1
 528.14453125 533.533203125 l 1
 601.49609375 533.533203125 l 1
 674.849609375 533.533203125 l 1
 674.849609375 356.885742188 l 1
 674.849609375 180.239257812 l 1
 601.49609375 180.239257812 l 1
 528.14453125 180.239257812 l 1
 528.14453125 356.885742188 l 1
971.2578125 193.712890625 m 1
 971.2578125 545.508789062 l 1
 1046.10742188 545.508789062 l 1
 1120.95898438 545.508789062 l 1
 1120.95898438 193.712890625 l 1
 1120.95898438 -158.083984375 l 1
 1046.10742188 -158.083984375 l 1
 971.2578125 -158.083984375 l 1
 971.2578125 193.712890625 l 1
79.041015625 193.712890625 m 1
 79.041015625 545.508789062 l 1
 152.39453125 545.508789062 l 1
 225.748046875 545.508789062 l 1
 225.748046875 193.712890625 l 1
 225.748046875 -158.083984375 l 1
 152.39453125 -158.083984375 l 1
 79.041015625 -158.083984375 l 1
 79.041015625 193.712890625 l 1
656.88671875 630.837890625 m 1
 656.88671875 704.19140625 l 1
 809.580078125 704.19140625 l 1
 962.275390625 704.19140625 l 1
 962.275390625 630.837890625 l 1
 962.275390625 557.485351562 l 1
 809.580078125 557.485351562 l 1
 656.88671875 557.485351562 l 1
 656.88671875 630.837890625 l 1
222.75390625 630.837890625 m 1
 222.75390625 704.19140625 l 1
 375.44921875 704.19140625 l 1
 528.14453125 704.19140625 l 1
 528.14453125 630.837890625 l 1
 528.14453125 557.485351562 l 1
 375.44921875 557.485351562 l 1
 222.75390625 557.485351562 l 1
 222.75390625 630.837890625 l 1
EndSplineSet
EndChar

StartChar: N
Encoding: 78 78 13
Width: 1250
Flags: HW
LayerCount: 2
Back
Fore
SplineSet
372.69921875 556.901367188 m 2
 410.122070312 594.325195312 441.643554688 625.153320312 442.484375 625.153320312 c 0
 443.327148438 625.153320312 556.594726562 512.577148438 694.018554688 375.153320312 c 2
 944.018554688 125.153320312 l 1
 875 56.134765625 l 1
 805.981445312 -12.8837890625 l 1
 555.21484375 237.883789062 l 1
 304.447265625 488.650390625 l 1
 372.69921875 556.901367188 l 2
1006.90136719 307.668945312 m 1
 1006.90136719 772.392578125 l 1
 1105.06152344 772.392578125 l 1
 1203.22070312 772.392578125 l 1
 1203.22070312 307.668945312 l 1
 1203.22070312 -157.055664062 l 1
 1105.06152344 -157.055664062 l 1
 1006.90136719 -157.055664062 l 1
 1006.90136719 307.668945312 l 1
46.779296875 307.668945312 m 1
 46.779296875 772.392578125 l 1
 143.404296875 772.392578125 l 1
 240.030273438 772.392578125 l 1
 240.030273438 307.668945312 l 1
 240.030273438 -157.055664062 l 1
 143.404296875 -157.055664062 l 1
 46.779296875 -157.055664062 l 1
 46.779296875 307.668945312 l 1
EndSplineSet
EndChar

StartChar: O
Encoding: 79 79 14
Width: 1250
Flags: W
HStem: -139.394 175.757<337.121 912.879> 603.03 175.758<337.121 912.879>
VStem: 55.3027 190.908<36.3633 603.03> 1003.79 190.91<36.3633 603.03>
LayerCount: 2
Back
Fore
SplineSet
337.12109375 -51.515625 m 1
 337.12109375 36.36328125 l 1
 625 36.36328125 l 1
 912.87890625 36.36328125 l 1
 912.87890625 -51.515625 l 1
 912.87890625 -139.393554688 l 1
 625 -139.393554688 l 1
 337.12109375 -139.393554688 l 1
 337.12109375 -51.515625 l 1
1003.78710938 319.697265625 m 1
 1003.78710938 603.030273438 l 1
 1099.2421875 603.030273438 l 1
 1194.69726562 603.030273438 l 1
 1194.69726562 319.697265625 l 1
 1194.69726562 36.36328125 l 1
 1099.2421875 36.36328125 l 1
 1003.78710938 36.36328125 l 1
 1003.78710938 319.697265625 l 1
55.302734375 319.697265625 m 1
 55.302734375 603.030273438 l 1
 150.7578125 603.030273438 l 1
 246.2109375 603.030273438 l 1
 246.2109375 319.697265625 l 1
 246.2109375 36.36328125 l 1
 150.7578125 36.36328125 l 1
 55.302734375 36.36328125 l 1
 55.302734375 319.697265625 l 1
337.12109375 690.909179688 m 1
 337.12109375 778.788085938 l 1
 625 778.788085938 l 1
 912.87890625 778.788085938 l 1
 912.87890625 690.909179688 l 1
 912.87890625 603.030273438 l 1
 625 603.030273438 l 1
 337.12109375 603.030273438 l 1
 337.12109375 690.909179688 l 1
EndSplineSet
EndChar

StartChar: P
Encoding: 80 80 15
Width: 1200
Flags: HW
LayerCount: 2
Back
Fore
SplineSet
327.41015625 315.060546875 m 1
 327.41015625 399.397460938 l 1
 612.048828125 399.397460938 l 1
 896.6875 399.397460938 l 1
 896.6875 315.060546875 l 1
 896.6875 230.72265625 l 1
 612.048828125 230.72265625 l 1
 327.41015625 230.72265625 l 1
 327.41015625 315.060546875 l 1
935.84375 501.807617188 m 1
 935.84375 658.43359375 l 1
 1032.22851562 658.43359375 l 1
 1128.61523438 658.43359375 l 1
 1128.61523438 501.807617188 l 1
 1128.61523438 345.180664062 l 1
 1032.22851562 345.180664062 l 1
 935.84375 345.180664062 l 1
 935.84375 501.807617188 l 1
71.384765625 248.794921875 m 1
 71.384765625 658.43359375 l 1
 167.771484375 658.43359375 l 1
 264.15625 658.43359375 l 1
 264.15625 248.794921875 l 1
 264.15625 -160.84375 l 1
 167.771484375 -160.84375 l 1
 71.384765625 -160.84375 l 1
 71.384765625 248.794921875 l 1
327.41015625 679.518554688 m 1
 327.41015625 766.8671875 l 1
 612.048828125 766.8671875 l 1
 896.6875 766.8671875 l 1
 896.6875 679.518554688 l 1
 896.6875 592.168945312 l 1
 612.048828125 592.168945312 l 1
 327.41015625 592.168945312 l 1
 327.41015625 679.518554688 l 1
EndSplineSet
EndChar

StartChar: Q
Encoding: 81 81 16
Width: 1200
Flags: HW
LayerCount: 2
Back
Fore
SplineSet
341.666015625 -10.109375 m 1
 341.666015625 67.759765625 l 1
 556.147460938 67.759765625 l 1
 770.627929688 67.759765625 l 1
 770.627929688 -10.109375 l 1
 770.627929688 -87.978515625 l 1
 556.147460938 -87.978515625 l 1
 341.666015625 -87.978515625 l 1
 341.666015625 -10.109375 l 1
707.513671875 308.469726562 m 2
 741.120117188 341.326171875 769.455078125 368.305664062 770.354492188 368.305664062 c 0
 771.255859375 368.305664062 849.31640625 290.983398438 943.579101562 196.721679688 c 2
 1115.1640625 25.13671875 l 1
 1052.73242188 -35.3828125 l 1
 990.30078125 -95.9013671875 l 1
 818.305664062 76.3662109375 l 1
 646.311523438 248.633789062 l 1
 707.513671875 308.469726562 l 2
940.02734375 416.120117188 m 1
 940.02734375 581.420898438 l 1
 1027.45898438 581.420898438 l 1
 1114.890625 581.420898438 l 1
 1114.890625 416.120117188 l 1
 1114.890625 250.819335938 l 1
 1027.45898438 250.819335938 l 1
 940.02734375 250.819335938 l 1
 940.02734375 416.120117188 l 1
84.8359375 324.58984375 m 1
 84.8359375 581.420898438 l 1
 170.901367188 581.420898438 l 1
 256.966796875 581.420898438 l 1
 256.966796875 324.58984375 l 1
 256.966796875 67.759765625 l 1
 170.901367188 67.759765625 l 1
 84.8359375 67.759765625 l 1
 84.8359375 324.58984375 l 1
341.666015625 659.290039062 m 1
 341.666015625 737.158203125 l 1
 599.86328125 737.158203125 l 1
 858.059570312 737.158203125 l 1
 858.059570312 659.290039062 l 1
 858.059570312 581.420898438 l 1
 599.86328125 581.420898438 l 1
 341.666015625 581.420898438 l 1
 341.666015625 659.290039062 l 1
EndSplineSet
EndChar

StartChar: R
Encoding: 82 82 17
Width: 1420
Flags: HW
LayerCount: 2
Back
Fore
SplineSet
945.46484375 296.366210938 m 1
 1010.14550781 361.046875 l 1
 1194.73828125 176.453125 l 1
 1379.33105469 -8.1396484375 l 1
 1314.65136719 -72.8193359375 l 1
 1249.97070312 -137.5 l 1
 1065.37792969 47.0927734375 l 1
 880.78515625 231.686523438 l 1
 945.46484375 296.366210938 l 1
313.924804688 315.98828125 m 1
 313.924804688 398.836914062 l 1
 569.73828125 398.836914062 l 1
 825.552734375 398.836914062 l 1
 825.552734375 315.98828125 l 1
 825.552734375 233.139648438 l 1
 569.73828125 233.139648438 l 1
 313.924804688 233.139648438 l 1
 313.924804688 315.98828125 l 1
892.413085938 536.918945312 m 1
 892.413085938 689.53515625 l 1
 985.436523438 689.53515625 l 1
 1078.45898438 689.53515625 l 1
 1078.45898438 536.918945312 l 1
 1078.45898438 384.302734375 l 1
 985.436523438 384.302734375 l 1
 892.413085938 384.302734375 l 1
 892.413085938 536.918945312 l 1
313.924804688 667.732421875 m 1
 313.924804688 750.581054688 l 1
 569.73828125 750.581054688 l 1
 825.552734375 750.581054688 l 1
 825.552734375 667.732421875 l 1
 825.552734375 584.883789062 l 1
 569.73828125 584.883789062 l 1
 313.924804688 584.883789062 l 1
 313.924804688 667.732421875 l 1
42.55859375 425.7265625 m 2
 44.4482421875 750.581054688 l 1
 135.581054688 750.581054688 l 1
 226.71484375 750.581054688 l 1
 226.71484375 311.627929688 l 1
 226.71484375 -127.325195312 l 1
 133.692382812 -127.325195312 l 1
 40.6689453125 -127.325195312 l 1
 40.6689453125 -13.2265625 l 2
 40.6689453125 49.5654296875 41.5185546875 246.947265625 42.55859375 425.7265625 c 2
945.46484375 296.366210938 m 1
 1010.14550781 361.046875 l 1
 1194.73828125 176.453125 l 1
 1379.33105469 -8.1396484375 l 1
 1314.65136719 -72.8193359375 l 1
 1249.97070312 -137.5 l 1
 1065.37792969 47.0927734375 l 1
 880.78515625 231.686523438 l 1
 945.46484375 296.366210938 l 1
313.924804688 315.98828125 m 1
 313.924804688 398.836914062 l 1
 569.73828125 398.836914062 l 1
 825.552734375 398.836914062 l 1
 825.552734375 315.98828125 l 1
 825.552734375 233.139648438 l 1
 569.73828125 233.139648438 l 1
 313.924804688 233.139648438 l 1
 313.924804688 315.98828125 l 1
892.413085938 536.918945312 m 1
 892.413085938 689.53515625 l 1
 985.436523438 689.53515625 l 1
 1078.45898438 689.53515625 l 1
 1078.45898438 536.918945312 l 1
 1078.45898438 384.302734375 l 1
 985.436523438 384.302734375 l 1
 892.413085938 384.302734375 l 1
 892.413085938 536.918945312 l 1
313.924804688 667.732421875 m 1
 313.924804688 750.581054688 l 1
 569.73828125 750.581054688 l 1
 825.552734375 750.581054688 l 1
 825.552734375 667.732421875 l 1
 825.552734375 584.883789062 l 1
 569.73828125 584.883789062 l 1
 313.924804688 584.883789062 l 1
 313.924804688 667.732421875 l 1
42.55859375 425.7265625 m 2
 44.4482421875 750.581054688 l 1
 135.581054688 750.581054688 l 1
 226.71484375 750.581054688 l 1
 226.71484375 311.627929688 l 1
 226.71484375 -127.325195312 l 1
 133.692382812 -127.325195312 l 1
 40.6689453125 -127.325195312 l 1
 40.6689453125 -13.2265625 l 2
 40.6689453125 49.5654296875 41.5185546875 246.947265625 42.55859375 425.7265625 c 2
945.46484375 296.366210938 m 1
 1010.14550781 361.046875 l 1
 1194.73828125 176.453125 l 1
 1379.33105469 -8.1396484375 l 1
 1314.65136719 -72.8193359375 l 1
 1249.97070312 -137.5 l 1
 1065.37792969 47.0927734375 l 1
 880.78515625 231.686523438 l 1
 945.46484375 296.366210938 l 1
313.924804688 315.98828125 m 1
 313.924804688 398.836914062 l 1
 569.73828125 398.836914062 l 1
 825.552734375 398.836914062 l 1
 825.552734375 315.98828125 l 1
 825.552734375 233.139648438 l 1
 569.73828125 233.139648438 l 1
 313.924804688 233.139648438 l 1
 313.924804688 315.98828125 l 1
892.413085938 536.918945312 m 1
 892.413085938 689.53515625 l 1
 985.436523438 689.53515625 l 1
 1078.45898438 689.53515625 l 1
 1078.45898438 536.918945312 l 1
 1078.45898438 384.302734375 l 1
 985.436523438 384.302734375 l 1
 892.413085938 384.302734375 l 1
 892.413085938 536.918945312 l 1
313.924804688 667.732421875 m 1
 313.924804688 750.581054688 l 1
 569.73828125 750.581054688 l 1
 825.552734375 750.581054688 l 1
 825.552734375 667.732421875 l 1
 825.552734375 584.883789062 l 1
 569.73828125 584.883789062 l 1
 313.924804688 584.883789062 l 1
 313.924804688 667.732421875 l 1
42.55859375 425.7265625 m 2
 44.4482421875 750.581054688 l 1
 135.581054688 750.581054688 l 1
 226.71484375 750.581054688 l 1
 226.71484375 311.627929688 l 1
 226.71484375 -127.325195312 l 1
 133.692382812 -127.325195312 l 1
 40.6689453125 -127.325195312 l 1
 40.6689453125 -13.2265625 l 2
 40.6689453125 49.5654296875 41.5185546875 246.947265625 42.55859375 425.7265625 c 2
EndSplineSet
EndChar

StartChar: S
Encoding: 83 83 18
Width: 1200
Flags: HW
LayerCount: 2
Back
Fore
SplineSet
107.771484375 -45.8544921875 m 1
 107.771484375 30.5703125 l 1
 489.896484375 30.5703125 l 1
 872.021484375 30.5703125 l 1
 872.021484375 -45.8544921875 l 1
 872.021484375 -122.280273438 l 1
 489.896484375 -122.280273438 l 1
 107.771484375 -122.280273438 l 1
 107.771484375 -45.8544921875 l 1
892.74609375 117.357421875 m 1
 892.74609375 258.548828125 l 1
 979.533203125 258.548828125 l 1
 1066.3203125 258.548828125 l 1
 1066.3203125 117.357421875 l 1
 1066.3203125 -23.833984375 l 1
 979.533203125 -23.833984375 l 1
 892.74609375 -23.833984375 l 1
 892.74609375 117.357421875 l 1
361.658203125 289.637695312 m 1
 361.658203125 367.357421875 l 1
 616.83984375 367.357421875 l 1
 872.021484375 367.357421875 l 1
 872.021484375 289.637695312 l 1
 872.021484375 211.916992188 l 1
 616.83984375 211.916992188 l 1
 361.658203125 211.916992188 l 1
 361.658203125 289.637695312 l 1
151.8125 448.963867188 m 1
 151.8125 590.155273438 l 1
 237.3046875 590.155273438 l 1
 322.796875 590.155273438 l 1
 322.796875 448.963867188 l 1
 322.796875 307.772460938 l 1
 237.3046875 307.772460938 l 1
 151.8125 307.772460938 l 1
 151.8125 448.963867188 l 1
351.294921875 632.901367188 m 1
 351.294921875 717.098632812 l 1
 721.76171875 717.098632812 l 1
 1092.22851562 717.098632812 l 1
 1092.22851562 632.901367188 l 1
 1092.22851562 548.705078125 l 1
 721.76171875 548.705078125 l 1
 351.294921875 548.705078125 l 1
 351.294921875 632.901367188 l 1
EndSplineSet
EndChar

StartChar: T
Encoding: 84 84 19
Width: 1200
Flags: HW
LayerCount: 2
Back
Fore
SplineSet
499.408203125 160.946289062 m 1
 499.408203125 492.307617188 l 1
 597.041015625 492.307617188 l 1
 694.673828125 492.307617188 l 1
 694.673828125 160.946289062 l 1
 694.673828125 -170.4140625 l 1
 597.041015625 -170.4140625 l 1
 499.408203125 -170.4140625 l 1
 499.408203125 160.946289062 l 1
117.751953125 672.78125 m 1
 117.751953125 761.538085938 l 1
 600 761.538085938 l 1
 1082.24804688 761.538085938 l 1
 1082.24804688 672.78125 l 1
 1082.24804688 584.0234375 l 1
 600 584.0234375 l 1
 117.751953125 584.0234375 l 1
 117.751953125 672.78125 l 1
EndSplineSet
EndChar

StartChar: U
Encoding: 85 85 20
Width: 1250
Flags: HW
LayerCount: 2
Back
Fore
SplineSet
332.099609375 -71.3017578125 m 1
 332.099609375 15.9765625 l 1
 625 15.9765625 l 1
 917.8984375 15.9765625 l 1
 917.8984375 -71.3017578125 l 1
 917.8984375 -158.580078125 l 1
 625 -158.580078125 l 1
 332.099609375 -158.580078125 l 1
 332.099609375 -71.3017578125 l 1
1009.61523438 396.154296875 m 1
 1009.61523438 773.373046875 l 1
 1108.7265625 773.373046875 l 1
 1207.83984375 773.373046875 l 1
 1207.83984375 396.154296875 l 1
 1207.83984375 18.9345703125 l 1
 1108.7265625 18.9345703125 l 1
 1009.61523438 18.9345703125 l 1
 1009.61523438 396.154296875 l 1
44.08203125 511.094726562 m 2
 46.005859375 773.373046875 l 1
 143.1953125 773.373046875 l 1
 240.384765625 773.373046875 l 1
 240.384765625 396.154296875 l 1
 240.384765625 18.9345703125 l 1
 141.271484375 18.9345703125 l 1
 42.16015625 18.9345703125 l 1
 42.16015625 133.875976562 l 2
 42.16015625 197.1484375 43.0234375 366.715820312 44.08203125 511.094726562 c 2
EndSplineSet
EndChar

StartChar: V
Encoding: 86 86 21
Width: 1450
Flags: HW
LayerCount: 2
Back
Fore
SplineSet
1043.79492188 446.099609375 m 2
 1186.30273438 590.071289062 1303.87402344 707.801757812 1305.14257812 707.801757812 c 0
 1306.40820312 707.801757812 1334.21972656 681.028320312 1366.84472656 648.404296875 c 2
 1426.24121094 589.006835938 l 1
 1164.71679688 327.482421875 l 1
 903.19140625 65.95703125 l 1
 843.971679688 125.177734375 l 1
 784.751953125 184.397460938 l 1
 1043.79492188 446.099609375 l 2
82.26953125 652.836914062 m 2
 114.5390625 685.106445312 141.575195312 711.34765625 142.553710938 711.34765625 c 0
 143.529296875 711.34765625 302.127929688 553.545898438 495.390625 360.283203125 c 2
 846.454101562 9.2197265625 l 1
 787.056640625 -50.177734375 l 1
 727.66015625 -109.57421875 l 1
 375.709960938 242.375976562 l 1
 23.7587890625 594.326171875 l 1
 82.26953125 652.836914062 l 2
EndSplineSet
EndChar

StartChar: W
Encoding: 87 87 22
Width: 1450
Flags: HW
LayerCount: 2
Back
Fore
SplineSet
843.677734375 -47.2763671875 m 1
 843.677734375 43.1904296875 l 1
 1018.7734375 43.1904296875 l 1
 1193.87109375 43.1904296875 l 1
 1193.87109375 -47.2763671875 l 1
 1193.87109375 -137.743164062 l 1
 1018.7734375 -137.743164062 l 1
 843.677734375 -137.743164062 l 1
 843.677734375 -47.2763671875 l 1
298.443359375 43.7744140625 m 2
 316.37109375 44.095703125 395.13671875 44.533203125 473.541015625 44.7470703125 c 2
 616.05078125 45.1357421875 l 1
 616.05078125 -46.3037109375 l 1
 616.05078125 -137.743164062 l 1
 440.953125 -137.743164062 l 1
 265.85546875 -137.743164062 l 1
 265.85546875 -47.2763671875 l 1
 265.85546875 43.1904296875 l 1
 298.443359375 43.7744140625 l 2
639.396484375 219.260742188 m 1
 639.396484375 395.331054688 l 1
 730.8359375 395.331054688 l 1
 822.275390625 395.331054688 l 1
 822.275390625 219.260742188 l 1
 822.275390625 43.1904296875 l 1
 730.8359375 43.1904296875 l 1
 639.396484375 43.1904296875 l 1
 639.396484375 219.260742188 l 1
59.630859375 397.276367188 m 1
 59.630859375 749.416015625 l 1
 151.0703125 749.416015625 l 1
 242.509765625 749.416015625 l 1
 242.509765625 397.276367188 l 1
 242.509765625 45.1357421875 l 1
 151.0703125 45.1357421875 l 1
 59.630859375 45.1357421875 l 1
 59.630859375 397.276367188 l 1
1207.49023438 399.221679688 m 1
 1207.49023438 755.252929688 l 1
 1298.9296875 755.252929688 l 1
 1390.36914062 755.252929688 l 1
 1390.36914062 399.221679688 l 1
 1390.36914062 43.1904296875 l 1
 1298.9296875 43.1904296875 l 1
 1207.49023438 43.1904296875 l 1
 1207.49023438 399.221679688 l 1
EndSplineSet
EndChar

StartChar: X
Encoding: 88 88 23
Width: 1000
Flags: H
LayerCount: 2
Back
Fore
SplineSet
619.046875 180.952148438 m 2
 651.984375 213.888671875 679.45703125 240.4765625 680.5546875 240.4765625 c 0
 681.646484375 240.4765625 736.111328125 186.904296875 801.587890625 121.428710938 c 2
 920.634765625 2.380859375 l 1
 860.119140625 -58.134765625 l 1
 799.603515625 -118.650390625 l 1
 679.564453125 1.388671875 l 1
 559.5234375 121.428710938 l 1
 619.046875 180.952148438 l 2
436.5078125 363.4921875 m 2
 632.9375 559.920898438 794.6328125 720.188476562 795.833984375 719.642578125 c 0
 797.041015625 719.09375 824.88671875 691.071289062 858.134765625 656.944335938 c 2
 918.25390625 595.23828125 l 1
 561.310546875 238.293945312 l 1
 204.365234375 -118.650390625 l 1
 141.865234375 -56.150390625 l 1
 79.365234375 6.349609375 l 1
 436.5078125 363.4921875 l 2
140.873046875 659.126953125 m 1
 202.380859375 720.634765625 l 1
 322.22265625 600.793945312 l 1
 442.064453125 480.952148438 l 1
 379.76171875 420.436523438 l 1
 317.4609375 359.920898438 l 1
 198.412109375 478.76953125 l 1
 79.365234375 597.619140625 l 1
 140.873046875 659.126953125 l 1
EndSplineSet
EndChar

StartChar: Y
Encoding: 89 89 24
Width: 900
Flags: HW
LayerCount: 2
Back
Fore
SplineSet
658.333984375 -1.328125 m 1
 657.728515625 135.749023438 l 1
 716.908203125 135.749023438 l 1
 776.0859375 135.749023438 l 1
 776.0859375 -1.9326171875 l 1
 776.0859375 -139.61328125 l 1
 717.51171875 -139.009765625 l 1
 658.9375 -138.40625 l 1
 658.333984375 -1.328125 l 1
261.59375 223.913085938 m 1
 261.59375 285.506835938 l 1
 458.453125 285.506835938 l 1
 655.314453125 285.506835938 l 1
 655.314453125 223.913085938 l 1
 655.314453125 162.318359375 l 1
 458.453125 162.318359375 l 1
 261.59375 162.318359375 l 1
 261.59375 223.913085938 l 1
664.9765625 528.260742188 m 1
 664.9765625 771.014648438 l 1
 726.5703125 771.014648438 l 1
 788.1640625 771.014648438 l 1
 788.1640625 528.260742188 l 1
 788.1640625 285.506835938 l 1
 726.5703125 285.506835938 l 1
 664.9765625 285.506835938 l 1
 664.9765625 528.260742188 l 1
111.8359375 528.260742188 m 1
 111.8359375 771.014648438 l 1
 173.4296875 771.014648438 l 1
 235.0234375 771.014648438 l 1
 235.0234375 528.260742188 l 1
 235.0234375 285.506835938 l 1
 173.4296875 285.506835938 l 1
 111.8359375 285.506835938 l 1
 111.8359375 528.260742188 l 1
EndSplineSet
EndChar

StartChar: Z
Encoding: 90 90 25
Width: 1000
Flags: H
LayerCount: 2
Back
Fore
SplineSet
409.53125 -46.22265625 m 1
 408.6328125 37.41015625 l 1
 662.23046875 37.41015625 l 1
 915.826171875 37.41015625 l 1
 914.927734375 -46.22265625 l 1
 914.029296875 -129.856445312 l 1
 662.23046875 -129.856445312 l 1
 410.431640625 -129.856445312 l 1
 409.53125 -46.22265625 l 1
88.48828125 668.705078125 m 1
 88.48828125 753.237304688 l 1
 340.287109375 753.237304688 l 1
 592.0859375 753.237304688 l 1
 591.1875 669.604492188 l 1
 590.287109375 585.971679688 l 1
 339.388671875 585.072265625 l 1
 88.48828125 584.172851562 l 1
 88.48828125 668.705078125 l 1
579.49609375 525.719726562 m 0
 709.9375 656.654296875 817.716796875 764.028320312 818.705078125 764.028320312 c 0
 819.69140625 764.028320312 849.58203125 733.8125 884.892578125 697.122070312 c 2
 949.28125 630.215820312 l 1
 565.646484375 246.583007812 l 1
 182.013671875 -137.05078125 l 1
 116.3671875 -71.4033203125 l 1
 50.71875 -5.755859375 l 1
 196.40234375 140.827148438 l 2
 276.4453125 221.365234375 449.0546875 394.784179688 579.49609375 525.719726562 c 0
EndSplineSet
EndChar

StartChar: zero
Encoding: 48 48 26
Width: 908
Flags: W
HStem: 1.38867 121.528<267.916 642.916> 522.223 121.527<267.916 642.916>
VStem: 70 135.416<122.917 522.223> 705.416 138.021<124.652 522.223>
LayerCount: 2
Back
Fore
SplineSet
267.916015625 62.15234375 m 1
 267.916015625 122.916992188 l 1
 455.416015625 122.916992188 l 1
 642.916015625 122.916992188 l 1
 642.916015625 62.15234375 l 1
 642.916015625 1.388671875 l 1
 455.416015625 1.388671875 l 1
 267.916015625 1.388671875 l 1
 267.916015625 62.15234375 l 1
705.416015625 322.569335938 m 1
 705.416015625 522.22265625 l 1
 774.861328125 522.22265625 l 1
 844.3046875 522.22265625 l 1
 843.4375 323.4375 l 1
 842.568359375 124.65234375 l 1
 773.9921875 123.78515625 l 1
 705.416015625 122.916992188 l 1
 705.416015625 322.569335938 l 1
70 322.569335938 m 1
 70 522.22265625 l 1
 137.70703125 522.22265625 l 1
 205.416015625 522.22265625 l 1
 205.416015625 322.569335938 l 1
 205.416015625 122.916992188 l 1
 137.70703125 122.916992188 l 1
 70 122.916992188 l 1
 70 322.569335938 l 1
267.916015625 582.986328125 m 1
 267.916015625 643.75 l 1
 455.416015625 643.75 l 1
 642.916015625 643.75 l 1
 642.916015625 582.986328125 l 1
 642.916015625 522.22265625 l 1
 455.416015625 522.22265625 l 1
 267.916015625 522.22265625 l 1
 267.916015625 582.986328125 l 1
EndSplineSet
EndChar

StartChar: one
Encoding: 49 49 27
Width: 522
Flags: HW
LayerCount: 2
Back
Fore
SplineSet
286.70703125 297.967773438 m 1
 286.70703125 673.983398438 l 1
 365.975585938 673.983398438 l 1
 445.244140625 673.983398438 l 1
 445.244140625 297.967773438 l 1
 445.244140625 -78.048828125 l 1
 365.975585938 -78.048828125 l 1
 286.70703125 -78.048828125 l 1
 286.70703125 297.967773438 l 1
55 598.780273438 m 1
 55 673.983398438 l 1
 134.268554688 673.983398438 l 1
 213.536132812 673.983398438 l 1
 213.536132812 598.780273438 l 1
 213.536132812 523.577148438 l 1
 134.268554688 523.577148438 l 1
 55 523.577148438 l 1
 55 598.780273438 l 1
EndSplineSet
EndChar

StartChar: two
Encoding: 50 50 28
Width: 1020
Flags: HW
LayerCount: 2
Back
Fore
SplineSet
306.537109375 -3.71875 m 1
 306.537109375 68.5947265625 l 1
 624.720703125 68.5947265625 l 1
 942.90234375 68.5947265625 l 1
 942.90234375 -3.71875 l 1
 942.90234375 -76.033203125 l 1
 624.720703125 -76.033203125 l 1
 306.537109375 -76.033203125 l 1
 306.537109375 -3.71875 l 1
306.537109375 310.331054688 m 1
 306.537109375 382.64453125 l 1
 506.951171875 382.64453125 l 1
 707.365234375 382.64453125 l 1
 707.365234375 310.331054688 l 1
 707.365234375 238.016601562 l 1
 506.951171875 238.016601562 l 1
 306.537109375 238.016601562 l 1
 306.537109375 310.331054688 l 1
71 153.305664062 m 1
 71 382.64453125 l 1
 151.580078125 382.64453125 l 1
 232.158203125 382.64453125 l 1
 232.158203125 153.305664062 l 1
 232.158203125 -76.033203125 l 1
 151.580078125 -76.033203125 l 1
 71 -76.033203125 l 1
 71 153.305664062 l 1
781.744140625 463.22265625 m 1
 781.744140625 688.4296875 l 1
 862.322265625 688.4296875 l 1
 942.90234375 688.4296875 l 1
 942.90234375 463.22265625 l 1
 942.90234375 238.016601562 l 1
 862.322265625 238.016601562 l 1
 781.744140625 238.016601562 l 1
 781.744140625 463.22265625 l 1
232.158203125 616.115234375 m 1
 232.158203125 688.4296875 l 1
 469.76171875 688.4296875 l 1
 707.365234375 688.4296875 l 1
 707.365234375 616.115234375 l 1
 707.365234375 543.801757812 l 1
 469.76171875 543.801757812 l 1
 232.158203125 543.801757812 l 1
 232.158203125 616.115234375 l 1
EndSplineSet
EndChar

StartChar: three
Encoding: 51 51 29
Width: 1023
Flags: HW
LayerCount: 2
Back
Fore
SplineSet
65 -37.15625 m 1
 65 43.119140625 l 1
 372.338867188 43.119140625 l 1
 679.678710938 43.119140625 l 1
 679.678710938 -37.15625 l 1
 679.678710938 -117.431640625 l 1
 372.338867188 -117.431640625 l 1
 65 -117.431640625 l 1
 65 -37.15625 l 1
243.8984375 311.467773438 m 1
 243.8984375 391.743164062 l 1
 461.7890625 391.743164062 l 1
 679.678710938 391.743164062 l 1
 679.678710938 311.467773438 l 1
 679.678710938 231.192382812 l 1
 461.7890625 231.192382812 l 1
 243.8984375 231.192382812 l 1
 243.8984375 311.467773438 l 1
766.834960938 306.880859375 m 1
 766.834960938 731.192382812 l 1
 856.284179688 731.192382812 l 1
 945.733398438 731.192382812 l 1
 945.733398438 306.880859375 l 1
 945.733398438 -117.431640625 l 1
 856.284179688 -117.431640625 l 1
 766.834960938 -117.431640625 l 1
 766.834960938 306.880859375 l 1
65 650.916992188 m 1
 65 731.192382812 l 1
 372.338867188 731.192382812 l 1
 679.678710938 731.192382812 l 1
 679.678710938 650.916992188 l 1
 679.678710938 570.642578125 l 1
 372.338867188 570.642578125 l 1
 65 570.642578125 l 1
 65 650.916992188 l 1
EndSplineSet
EndChar

StartChar: four
Encoding: 52 52 30
Width: 965
Flags: HW
LayerCount: 2
Back
Fore
SplineSet
731.564453125 134.491210938 m 1
 730.407226562 216.666992188 l 1
 820.684570312 216.666992188 l 1
 910.962890625 216.666992188 l 1
 910.962890625 133.333007812 l 1
 910.962890625 50 l 1
 821.842773438 51.1572265625 l 1
 732.721679688 52.314453125 l 1
 731.564453125 134.491210938 l 1
73 133.333007812 m 1
 73 216.666992188 l 1
 228.092773438 216.666992188 l 1
 383.184570312 216.666992188 l 1
 382.02734375 134.491210938 l 1
 380.870117188 52.314453125 l 1
 226.934570312 51.1572265625 l 1
 73 50 l 1
 73 133.333007812 l 1
466.518554688 293.055664062 m 1
 466.518554688 721.295898438 l 1
 556.795898438 721.295898438 l 1
 647.07421875 721.295898438 l 1
 647.07421875 293.055664062 l 1
 647.07421875 -135.185546875 l 1
 556.795898438 -135.185546875 l 1
 466.518554688 -135.185546875 l 1
 466.518554688 293.055664062 l 1
73 510.6484375 m 1
 73 721.295898438 l 1
 163.27734375 721.295898438 l 1
 253.555664062 721.295898438 l 1
 253.555664062 510.6484375 l 1
 253.555664062 300 l 1
 163.27734375 300 l 1
 73 300 l 1
 73 510.6484375 l 1
EndSplineSet
EndChar

StartChar: five
Encoding: 53 53 31
Width: 1152
Flags: HW
LayerCount: 2
Back
Fore
SplineSet
69 -58.1728515625 m 1
 69 25.9619140625 l 1
 439.192382812 25.9619140625 l 1
 809.384765625 25.9619140625 l 1
 809.384765625 -58.1728515625 l 1
 809.384765625 -142.307617188 l 1
 439.192382812 -142.307617188 l 1
 69 -142.307617188 l 1
 69 -58.1728515625 l 1
895.923828125 124.51953125 m 1
 895.923828125 391.345703125 l 1
 989.673828125 391.345703125 l 1
 1083.42382812 391.345703125 l 1
 1083.42382812 124.51953125 l 1
 1083.42382812 -142.307617188 l 1
 989.673828125 -142.307617188 l 1
 895.923828125 -142.307617188 l 1
 895.923828125 124.51953125 l 1
343.0390625 307.211914062 m 1
 343.0390625 391.345703125 l 1
 576.211914062 391.345703125 l 1
 809.384765625 391.345703125 l 1
 809.384765625 307.211914062 l 1
 809.384765625 223.077148438 l 1
 576.211914062 223.077148438 l 1
 343.0390625 223.077148438 l 1
 343.0390625 307.211914062 l 1
343.0390625 662.98046875 m 1
 343.0390625 747.115234375 l 1
 619.481445312 747.115234375 l 1
 895.923828125 747.115234375 l 1
 895.923828125 662.98046875 l 1
 895.923828125 578.845703125 l 1
 619.481445312 578.845703125 l 1
 343.0390625 578.845703125 l 1
 343.0390625 662.98046875 l 1
69 485.095703125 m 1
 69 747.115234375 l 1
 162.75 747.115234375 l 1
 256.5 747.115234375 l 1
 256.5 485.095703125 l 1
 256.5 223.077148438 l 1
 162.75 223.077148438 l 1
 69 223.077148438 l 1
 69 485.095703125 l 1
EndSplineSet
EndChar

StartChar: six
Encoding: 54 54 32
Width: 1176
Flags: HW
LayerCount: 2
Back
Fore
SplineSet
352.411132812 -75 m 1
 352.411132812 10.7841796875 l 1
 590.15625 10.7841796875 l 1
 827.901367188 10.7841796875 l 1
 827.901367188 -75 l 1
 827.901367188 -160.784179688 l 1
 590.15625 -160.784179688 l 1
 352.411132812 -160.784179688 l 1
 352.411132812 -75 l 1
916.13671875 111.274414062 m 1
 916.13671875 383.333007812 l 1
 1011.72460938 383.333007812 l 1
 1107.31347656 383.333007812 l 1
 1107.31347656 111.274414062 l 1
 1107.31347656 -160.784179688 l 1
 1011.72460938 -160.784179688 l 1
 916.13671875 -160.784179688 l 1
 916.13671875 111.274414062 l 1
352.411132812 297.548828125 m 1
 352.411132812 383.333007812 l 1
 590.15625 383.333007812 l 1
 827.901367188 383.333007812 l 1
 827.901367188 297.548828125 l 1
 827.901367188 211.764648438 l 1
 590.15625 211.764648438 l 1
 352.411132812 211.764648438 l 1
 352.411132812 297.548828125 l 1
352.411132812 660.293945312 m 1
 352.411132812 746.078125 l 1
 634.274414062 746.078125 l 1
 916.13671875 746.078125 l 1
 916.13671875 660.293945312 l 1
 916.13671875 574.509765625 l 1
 634.274414062 574.509765625 l 1
 352.411132812 574.509765625 l 1
 352.411132812 660.293945312 l 1
73 292.647460938 m 1
 73 746.078125 l 1
 168.587890625 746.078125 l 1
 264.17578125 746.078125 l 1
 264.17578125 292.647460938 l 1
 264.17578125 -160.784179688 l 1
 168.587890625 -160.784179688 l 1
 73 -160.784179688 l 1
 73 292.647460938 l 1
EndSplineSet
EndChar

StartChar: seven
Encoding: 55 55 33
Width: 1013
Flags: HW
LayerCount: 2
Back
Fore
SplineSet
56 659.5234375 m 1
 56 742.857421875 l 1
 325.047851562 742.857421875 l 1
 594.095703125 742.857421875 l 1
 594.095703125 659.5234375 l 1
 594.095703125 576.190429688 l 1
 325.047851562 576.190429688 l 1
 56 576.190429688 l 1
 56 659.5234375 l 1
446.4765625 369.047851562 m 2
 657.428710938 580 830.880859375 752.380859375 832.190429688 752.380859375 c 0
 836.866210938 752.380859375 960.762695312 626.190429688 960.762695312 621.428710938 c 0
 960.762695312 618.811523438 788.619140625 444.5234375 578.619140625 234.5234375 c 2
 196.4765625 -147.619140625 l 1
 129.809570312 -80.9521484375 l 1
 63.1435546875 -14.2861328125 l 1
 446.4765625 369.047851562 l 2
EndSplineSet
EndChar

StartChar: eight
Encoding: 56 56 34
Width: 1100
Flags: HW
LayerCount: 2
Back
Fore
SplineSet
329.756835938 -8.55859375 m 1
 329.756835938 70.2705078125 l 1
 548.224609375 70.2705078125 l 1
 766.693359375 70.2705078125 l 1
 766.693359375 -8.55859375 l 1
 766.693359375 -87.3876953125 l 1
 548.224609375 -87.3876953125 l 1
 329.756835938 -87.3876953125 l 1
 329.756835938 -8.55859375 l 1
847.774414062 83.7841796875 m 1
 847.774414062 254.955078125 l 1
 935.612304688 254.955078125 l 1
 1023.45019531 254.955078125 l 1
 1023.45019531 83.7841796875 l 1
 1023.45019531 -87.3876953125 l 1
 935.612304688 -87.3876953125 l 1
 847.774414062 -87.3876953125 l 1
 847.774414062 83.7841796875 l 1
73 83.7841796875 m 1
 73 254.955078125 l 1
 160.837890625 254.955078125 l 1
 248.67578125 254.955078125 l 1
 248.67578125 83.7841796875 l 1
 248.67578125 -87.3876953125 l 1
 160.837890625 -87.3876953125 l 1
 73 -87.3876953125 l 1
 73 83.7841796875 l 1
329.756835938 333.784179688 m 1
 329.756835938 412.612304688 l 1
 548.224609375 412.612304688 l 1
 766.693359375 412.612304688 l 1
 766.693359375 333.784179688 l 1
 766.693359375 254.955078125 l 1
 548.224609375 254.955078125 l 1
 329.756835938 254.955078125 l 1
 329.756835938 333.784179688 l 1
847.774414062 579.279296875 m 1
 847.774414062 745.946289062 l 1
 935.612304688 745.946289062 l 1
 1023.45019531 745.946289062 l 1
 1023.45019531 579.279296875 l 1
 1023.45019531 412.612304688 l 1
 935.612304688 412.612304688 l 1
 847.774414062 412.612304688 l 1
 847.774414062 579.279296875 l 1
329.756835938 667.1171875 m 1
 329.756835938 745.946289062 l 1
 548.224609375 745.946289062 l 1
 766.693359375 745.946289062 l 1
 766.693359375 667.1171875 l 1
 766.693359375 588.288085938 l 1
 548.224609375 588.288085938 l 1
 329.756835938 588.288085938 l 1
 329.756835938 667.1171875 l 1
73 579.279296875 m 1
 73 745.946289062 l 1
 160.837890625 745.946289062 l 1
 248.67578125 745.946289062 l 1
 248.67578125 579.279296875 l 1
 248.67578125 412.612304688 l 1
 160.837890625 412.612304688 l 1
 73 412.612304688 l 1
 73 579.279296875 l 1
EndSplineSet
EndChar

StartChar: nine
Encoding: 57 57 35
Width: 1156
Flags: HW
LayerCount: 2
Back
Fore
SplineSet
254.713867188 -45.23828125 m 1
 254.713867188 38.095703125 l 1
 528.5234375 38.095703125 l 1
 802.333007812 38.095703125 l 1
 802.333007812 -45.23828125 l 1
 802.333007812 -128.571289062 l 1
 528.5234375 -128.571289062 l 1
 254.713867188 -128.571289062 l 1
 254.713867188 -45.23828125 l 1
345.190429688 316.666992188 m 1
 345.190429688 400 l 1
 573.76171875 400 l 1
 802.333007812 400 l 1
 802.333007812 316.666992188 l 1
 802.333007812 233.333007812 l 1
 573.76171875 233.333007812 l 1
 345.190429688 233.333007812 l 1
 345.190429688 316.666992188 l 1
888.046875 311.904296875 m 1
 888.046875 752.380859375 l 1
 983.28515625 752.380859375 l 1
 1078.5234375 752.380859375 l 1
 1078.5234375 311.904296875 l 1
 1078.5234375 -128.571289062 l 1
 983.28515625 -128.571289062 l 1
 888.046875 -128.571289062 l 1
 888.046875 311.904296875 l 1
345.190429688 669.047851562 m 1
 345.190429688 752.380859375 l 1
 573.76171875 752.380859375 l 1
 802.333007812 752.380859375 l 1
 802.333007812 669.047851562 l 1
 802.333007812 585.713867188 l 1
 573.76171875 585.713867188 l 1
 345.190429688 585.713867188 l 1
 345.190429688 669.047851562 l 1
69 492.857421875 m 1
 69 752.380859375 l 1
 161.856445312 752.380859375 l 1
 254.713867188 752.380859375 l 1
 254.713867188 492.857421875 l 1
 254.713867188 233.333007812 l 1
 161.856445312 233.333007812 l 1
 69 233.333007812 l 1
 69 492.857421875 l 1
EndSplineSet
EndChar
